HIERARCHY
ROOT Hips
{
	OFFSET -0.001795 -0.223333 0.028219
	CHANNELS 6 Xposition Yposition Zposition Zrotation Yrotation Xrotation
	JOINT LeftUpLeg
	{
		OFFSET 0.069520 -0.091406 -0.006815
		CHANNELS 3 Zrotation Yrotation Xrotation
		JOINT LeftLeg
		{
			OFFSET 0.034277 -0.375199 -0.004496
			CHANNELS 3 Zrotation Yrotation Xrotation
			JOINT LeftFoot
			{
				OFFSET -0.013596 -0.397961 -0.043693
				CHANNELS 3 Zrotation Yrotation Xrotation
				JOINT LeftToe
				{
					OFFSET 0.026358 -0.055791 0.119288
					CHANNELS 3 Zrotation Yrotation Xrotation
					End Site
					{
						OFFSET 0.000000 0.000000 0.000000
					}
				}
			}
		}
	}
	JOINT RightUpLeg
	{
		OFFSET -0.067670 -0.090522 -0.004320
		CHANNELS 3 Zrotation Yrotation Xrotation
		JOINT RightLeg
		{
			OFFSET -0.038290 -0.382569 -0.008850
			CHANNELS 3 Zrotation Yrotation Xrotation
			JOINT RightFoot
			{
				OFFSET 0.015774 -0.398415 -0.042312
				CHANNELS 3 Zrotation Yrotation Xrotation
				JOINT RightToe
				{
					OFFSET -0.025372 -0.048144 0.123348
					CHANNELS 3 Zrotation Yrotation Xrotation
					End Site
					{
						OFFSET 0.000000 0.000000 0.000000
					}
				}
			}
		}
	}
	JOINT Spine
	{
		OFFSET -0.002533 0.108963 -0.026696
		CHANNELS 3 Zrotation Yrotation Xrotation
		JOINT Spine1
		{
			OFFSET 0.005487 0.135180 0.001092
			CHANNELS 3 Zrotation Yrotation Xrotation
			JOINT Spine2
			{
				OFFSET 0.001457 0.052922 0.025425
				CHANNELS 3 Zrotation Yrotation Xrotation
				JOINT Neck
				{
					OFFSET -0.002778 0.213870 -0.042857
					CHANNELS 3 Zrotation Yrotation Xrotation
					JOINT Head
					{
						OFFSET 0.005152 0.064970 0.051349
						CHANNELS 3 Zrotation Yrotation Xrotation
						End Site
						{
							OFFSET 0.000000 0.000000 0.000000
						}
					}
				}
				JOINT LeftShoulder
				{
					OFFSET 0.078845 0.121749 -0.034090
					CHANNELS 3 Zrotation Yrotation Xrotation
					JOINT LeftArm
					{
						OFFSET 0.090977 0.030469 -0.008868
						CHANNELS 3 Zrotation Yrotation Xrotation
						JOINT LeftForeArm
						{
							OFFSET 0.259612 -0.012772 -0.027456
							CHANNELS 3 Zrotation Yrotation Xrotation
							JOINT LeftHand
							{
								OFFSET 0.249234 0.008986 -0.001171
								CHANNELS 3 Zrotation Yrotation Xrotation
								End Site
								{
									OFFSET 0.000000 0.000000 0.000000
								}
							}
						}
					}
				}
				JOINT RightShoulder
				{
					OFFSET -0.081759 0.118833 -0.038615
					CHANNELS 3 Zrotation Yrotation Xrotation
					JOINT RightArm
					{
						OFFSET -0.096012 0.032551 -0.009143
						CHANNELS 3 Zrotation Yrotation Xrotation
						JOINT RightForeArm
						{
							OFFSET -0.253742 -0.013329 -0.021401
							CHANNELS 3 Zrotation Yrotation Xrotation
							JOINT RightHand
							{
								OFFSET -0.255298 0.007772 -0.005559
								CHANNELS 3 Zrotation Yrotation Xrotation
								End Site
								{
									OFFSET 0.000000 0.000000 0.000000
								}
							}
						}
					}
				}
			}
		}
	}
}
MOTION
Frames: 14
Frame Time: 0.050000
-0.080369 0.113395 -0.095518 -3.427630 3.575759 -87.317555 18.871495 3.905719 -31.324335 16.123045 -21.287619 59.681790 -22.069684 -28.346597 13.710003 0.000000 0.000000 0.000000 -5.872336 0.177848 -28.411648 6.582741 -3.067497 69.675914 -5.817426 -9.633302 -11.254829 0.000000 0.000000 0.000000 -1.269871 -0.160546 -40.814376 0.006461 -0.806440 14.391581 4.031098 1.571800 38.743650 4.910139 -3.675587 -6.104158 0.000000 0.000000 0.000000 -3.740582 -0.409384 -0.335498 -70.929365 -2.473814 -13.949937 -20.882123 -51.615052 14.504184 0.000000 0.000000 0.000000 8.978965 -5.712248 -2.611321 51.678398 -6.686563 -12.540202 56.406644 87.331276 61.593110 0.000000 0.000000 0.000000
-0.080804 0.116731 -0.096237 -2.567538 4.313823 -86.502465 18.252810 3.636458 -29.086426 14.203155 -17.649949 54.814181 -21.161167 -24.610157 16.024106 0.000000 0.000000 0.000000 -5.368134 0.368228 -27.339457 5.267774 -2.013625 64.694312 -4.935997 -8.842358 -5.963767 0.000000 0.000000 0.000000 0.304765 0.854263 -41.316575 -0.479957 -0.597168 15.179249 2.555488 1.269630 37.350216 5.889865 -4.332954 -7.438391 0.000000 0.000000 0.000000 -3.732771 -0.475848 -0.273956 -69.955961 -0.060105 -15.202925 -19.216961 -48.953891 12.379154 0.000000 0.000000 0.000000 9.274433 -5.561919 -2.589342 51.268554 -8.131079 -12.717906 19.164789 78.602868 21.398825 0.000000 0.000000 0.000000
-0.081277 0.117418 -0.096463 -2.093284 5.425441 -85.683419 18.130248 3.471055 -26.540209 11.425603 -13.869049 49.658411 -18.618344 -21.075355 15.397956 0.000000 0.000000 0.000000 -5.686753 0.161039 -26.751334 4.946527 -1.890560 60.075262 -4.016907 -8.313794 0.016959 0.000000 0.000000 0.000000 1.212605 1.275829 -41.238212 -0.510259 -0.578855 14.086439 1.157535 1.036905 37.975177 6.448264 -4.720888 -7.923958 0.000000 0.000000 0.000000 -4.313378 0.037416 -0.535185 -68.799696 1.671268 -16.105536 -19.583677 -45.842907 11.372434 0.000000 0.000000 0.000000 7.915535 -6.060835 -2.789195 52.684148 -9.711309 -13.516880 24.207297 70.876552 22.194598 0.000000 0.000000 0.000000
-0.082012 0.118895 -0.096787 -1.449896 6.345868 -84.878049 17.568984 3.192946 -24.171582 11.088950 -11.697413 43.811730 -18.628559 -19.387840 17.469286 0.000000 0.000000 0.000000 -5.892705 0.012031 -25.698440 4.742103 -1.745174 55.931158 -4.385861 -9.600348 2.609188 0.000000 0.000000 0.000000 2.065269 1.701068 -41.872548 -1.201825 -0.161339 13.748954 0.584417 0.964369 38.125993 7.116184 -5.122292 -8.697434 0.000000 0.000000 0.000000 -4.811726 0.679696 -0.889802 -67.452792 3.738413 -17.061327 -19.270847 -43.109086 10.168497 0.000000 0.000000 0.000000 6.842810 -6.842085 -3.140296 53.872260 -11.130849 -14.231723 23.459737 64.181087 18.954508 0.000000 0.000000 0.000000
-0.082487 0.118408 -0.096884 -1.395971 6.835623 -84.591604 17.851421 3.203334 -22.271318 9.960580 -9.810344 39.600564 -18.002805 -17.870073 18.134074 0.000000 0.000000 0.000000 -5.849934 -0.018976 -25.059379 4.440950 -1.583128 52.569984 -4.492014 -10.448816 6.405330 0.000000 0.000000 0.000000 2.270189 1.716995 -42.139020 -1.244923 -0.115071 13.040964 0.071504 1.480705 38.634432 8.578046 -6.228130 -9.008922 0.000000 0.000000 0.000000 -4.281219 1.352034 -1.252618 -66.842930 5.586052 -18.065952 -20.714790 -41.767621 10.106634 0.000000 0.000000 0.000000 6.378688 -7.505628 -3.390104 54.267137 -12.027892 -14.575431 22.870751 57.382139 16.101840 0.000000 0.000000 0.000000
-0.083013 0.119226 -0.097020 -1.431738 7.113055 -84.145199 17.861035 3.131103 -20.479287 9.610775 -8.328706 34.964057 -17.738403 -14.266933 22.299454 0.000000 0.000000 0.000000 -6.142023 -0.158918 -24.534900 4.606908 -1.674590 49.949722 -4.587812 -11.212184 10.190684 0.000000 0.000000 0.000000 2.706817 1.912856 -43.055113 -1.578443 0.075178 12.882261 -0.169649 1.913889 38.334492 10.535279 -7.369876 -10.800264 0.000000 0.000000 0.000000 -3.812231 1.625729 -1.421976 -66.457474 7.667601 -19.160142 -20.973712 -40.900501 9.650451 0.000000 0.000000 0.000000 4.724619 -8.413179 -3.758471 55.118357 -14.154932 -15.358175 23.968131 52.125902 14.715818 0.000000 0.000000 0.000000
-0.083475 0.118582 -0.097140 -1.373755 7.284734 -83.701692 18.706594 3.305326 -19.082466 8.349359 -6.846391 31.484865 -17.032087 -12.543846 23.173407 0.000000 0.000000 0.000000 -6.020371 -0.112062 -24.343762 4.371855 -1.562655 48.516373 -5.779960 -12.934766 8.890683 0.000000 0.000000 0.000000 3.087915 2.131500 -43.970181 -1.457451 -0.078607 13.782599 -0.676781 2.644381 37.537668 12.187160 -8.353176 -11.741417 0.000000 0.000000 0.000000 -4.323106 1.499920 -1.523310 -64.555803 8.601674 -19.038029 -20.518768 -39.781298 8.891678 0.000000 0.000000 0.000000 4.239006 -8.840525 -3.916257 54.997143 -15.251857 -15.501295 23.097217 48.340695 12.965937 0.000000 0.000000 0.000000
-0.083996 0.118886 -0.097364 -1.542298 7.667720 -83.298740 19.163702 3.326392 -18.103272 7.642086 -5.830073 28.390655 -16.711825 -10.193850 25.844440 0.000000 0.000000 0.000000 -6.475102 -0.333608 -23.641118 4.657932 -1.771650 46.779608 -6.714304 -14.243695 6.842773 0.000000 0.000000 0.000000 3.230608 2.084154 -45.288229 -1.937794 0.141152 14.485250 -0.635816 2.815616 37.105534 12.727484 -8.586677 -12.230676 0.000000 0.000000 0.000000 -4.312861 1.615356 -1.628328 -63.923684 9.800187 -19.480016 -19.517728 -40.016990 8.392296 0.000000 0.000000 0.000000 3.958564 -9.263247 -4.111001 54.332334 -16.415044 -15.641646 22.588493 46.405966 11.996923 0.000000 0.000000 0.000000
-0.084509 0.120080 -0.097485 -1.722723 7.668257 -83.343791 19.828043 3.451340 -17.401483 6.828803 -5.232705 27.124830 -17.183296 -9.513429 27.800381 0.000000 0.000000 0.000000 -6.473375 -0.346109 -23.306541 4.673509 -1.780008 45.813916 -6.675666 -14.397331 9.129332 0.000000 0.000000 0.000000 2.953668 1.867676 -45.617343 -1.971870 0.148266 14.659979 -0.450587 2.997778 36.666025 12.559050 -8.274155 -12.598100 0.000000 0.000000 0.000000 -3.641515 2.249480 -1.874566 -63.267177 10.328840 -19.461008 -19.419562 -40.330396 8.295120 0.000000 0.000000 0.000000 3.064226 -9.332822 -4.109951 54.589252 -17.480930 -15.998838 22.525096 44.768813 11.356967 0.000000 0.000000 0.000000
-0.084850 0.122759 -0.097460 -1.741739 7.562706 -83.172205 19.812837 3.432876 -17.090582 6.578226 -4.993326 26.535310 -17.437220 -7.886033 31.106905 0.000000 0.000000 0.000000 -6.726224 -0.453461 -22.950048 5.380397 -2.102546 45.274788 -7.626475 -15.976386 8.103158 0.000000 0.000000 0.000000 3.032738 1.915391 -46.160800 -1.797201 0.088547 14.076673 -0.653244 2.741897 36.948936 12.074134 -7.785416 -13.155076 0.000000 0.000000 0.000000 -2.667588 3.251004 -2.158992 -63.166090 10.713954 -19.610373 -18.918565 -39.728653 7.973908 0.000000 0.000000 0.000000 2.020617 -9.275258 -4.086030 54.487740 -18.802666 -16.489114 24.130264 43.940845 11.535275 0.000000 0.000000 0.000000
-0.085028 0.125475 -0.097369 -1.823323 7.614663 -83.094949 20.077954 3.476937 -16.734454 5.778678 -4.694260 26.560718 -16.560389 -7.304858 30.175499 0.000000 0.000000 0.000000 -7.305968 -0.697665 -22.406321 6.065155 -2.454627 45.092738 -8.074561 -16.737668 6.300464 0.000000 0.000000 0.000000 2.968563 1.822918 -47.154690 -2.053407 0.167837 15.354489 -0.118700 2.701349 36.183532 11.063427 -7.070527 -12.665141 0.000000 0.000000 0.000000 -2.120006 3.143064 -2.049655 -62.878363 10.927140 -19.529803 -17.823043 -40.485924 7.665912 0.000000 0.000000 0.000000 1.696610 -9.543177 -4.209153 53.547482 -20.205882 -16.680220 25.658445 44.168076 12.104404 0.000000 0.000000 0.000000
-0.085160 0.130903 -0.097427 -1.885742 7.670520 -82.927872 20.491541 3.527354 -16.229072 4.875763 -4.246735 26.033680 -15.462253 -5.681134 30.586751 0.000000 0.000000 0.000000 -7.892309 -0.940249 -21.531228 6.381382 -2.575063 44.597997 -8.915274 -18.238746 2.759441 0.000000 0.000000 0.000000 2.927226 1.743007 -47.903375 -2.070112 0.191627 15.133421 0.057537 2.145877 36.254061 10.147287 -6.264938 -13.352528 0.000000 0.000000 0.000000 -0.174283 3.960803 -2.117040 -64.117356 11.469668 -20.217099 -17.297048 -39.982054 7.433065 0.000000 0.000000 0.000000 0.998142 -8.756082 -3.846351 53.197691 -21.291538 -17.059943 25.168203 43.536132 11.440547 0.000000 0.000000 0.000000
-0.085236 0.135837 -0.097718 -1.912502 7.827499 -82.793982 20.838231 3.534502 -15.055884 3.800920 -3.591191 24.619831 -14.309287 -5.280207 28.534997 0.000000 0.000000 0.000000 -8.886550 -1.331854 -21.176231 7.094718 -2.975542 45.451853 -9.371907 -19.179573 -1.395439 0.000000 0.000000 0.000000 3.036727 1.750236 -48.474043 -2.252654 0.263300 15.696179 0.377832 2.237738 36.042527 9.316366 -5.635963 -13.097957 0.000000 0.000000 0.000000 0.942360 4.210849 -2.097999 -64.921266 11.921176 -20.807014 -16.535896 -40.637365 7.271674 0.000000 0.000000 0.000000 1.440162 -8.710561 -3.831779 52.312677 -22.111452 -17.077547 24.256417 42.970724 10.816059 0.000000 0.000000 0.000000
-0.085113 0.141364 -0.098392 -1.984567 7.872828 -82.567072 20.784747 3.451924 -14.102656 3.605800 -3.270983 23.209139 -13.421766 -5.368691 26.244052 0.000000 0.000000 0.000000 -9.896888 -1.709390 -20.842960 8.356019 -3.641088 45.475314 -10.778321 -22.014901 -2.107542 0.000000 0.000000 0.000000 3.011527 1.682575 -48.973698 -2.547337 0.455619 15.624763 0.985905 1.748533 36.281419 7.615846 -4.420423 -12.920202 0.000000 0.000000 0.000000 2.093485 5.157359 -2.336269 -65.565246 12.602622 -21.383743 -16.959838 -40.751233 7.515937 0.000000 0.000000 0.000000 1.842830 -8.181955 -3.609913 52.077072 -22.374262 -17.263546 22.481580 43.249166 10.081121 0.000000 0.000000 0.000000
